<svg xmlns="http://www.w3.org/2000/svg" width="24.562" height="23.515" viewBox="0 0 24.562 23.515">
  <g id="Group_8" data-name="Group 8" transform="translate(357.1 -1723.113)">
    <g id="Group_7" data-name="Group 7" transform="translate(-357 1723.213)">
      <path id="Path_4" data-name="Path 4" d="M263.719,296.41a4.5,4.5,0,1,0,4.5,4.5A4.5,4.5,0,0,0,263.719,296.41Zm0,7.917a3.416,3.416,0,1,1,3.416-3.416A3.422,3.422,0,0,1,263.719,304.327Z" transform="translate(-251.541 -283.939)" stroke="#000" stroke-width="0.2"/>
      <path id="Path_5" data-name="Path 5" d="M338.068,346.934v-1.426a.542.542,0,1,0-1.084,0v1.648a.56.56,0,0,0,.157.385l.83.83a.533.533,0,0,0,.385.157.555.555,0,0,0,.385-.157.54.54,0,0,0,0-.765Z" transform="translate(-325.451 -330.088)" stroke="#000" stroke-width="0.2"/>
      <path id="Path_6" data-name="Path 6" d="M128.7,51.356c0-.016-.005-.033-.005-.043a.02.02,0,0,0-.005-.016c-.005-.016-.005-.027-.011-.043s-.005-.011-.005-.016-.011-.027-.016-.038,0-.005-.005-.011l-2.977-6.04a.549.549,0,0,0-.488-.3H107.869a.549.549,0,0,0-.488.3l-2.977,6.04c0,.005,0,.005-.005.011s-.011.027-.016.038-.005.011-.005.016a.1.1,0,0,0-.011.043c0,.005-.005.011-.005.016a.119.119,0,0,0-.005.043v.016c0,.022-.005.038-.005.06V67.617a.544.544,0,0,0,.542.542H128.17a.544.544,0,0,0,.542-.542V51.427a.222.222,0,0,0-.005-.06.017.017,0,0,0-.005-.011Zm-1.4-.472h-7.06l-.895-4.956h5.509Zm-13.48,1.084h5.423v2.847l-.13-.136a.543.543,0,0,0-.781-.005l-.71.727-.7-.721a.55.55,0,0,0-.781,0l-.7.721-.71-.727a.543.543,0,0,0-.781.005l-.13.136Zm4.425-6.04.895,4.956h-5.211l.889-4.956Zm-10.036,0h5.509l-.895,4.956h-7.06Zm-2.771,21.147V51.969h7.3v4.208a.544.544,0,0,0,.938.374l.678-.716.7.721a.551.551,0,0,0,.385.163.532.532,0,0,0,.385-.163l.7-.721.7.721a.551.551,0,0,0,.385.163.532.532,0,0,0,.385-.163l.7-.721.678.716a.55.55,0,0,0,.4.168.527.527,0,0,0,.2-.038.542.542,0,0,0,.342-.5V51.969h7.3V67.075Z" transform="translate(-104.35 -44.844)" stroke="#000" stroke-width="0.2"/>
    </g>
  </g>
</svg>
